<?xml version="1.0" encoding="UTF-8"?><svg id="Layer_1" xmlns="http://www.w3.org/2000/svg" xmlns:xlink="http://www.w3.org/1999/xlink" viewBox="0 0 1038.61 519.88"><defs><linearGradient id="linear-gradient" x1="803.24" y1="-270.94" x2="1329.16" y2="485.06" gradientTransform="translate(173.13 139.77) scale(.26)" gradientUnits="userSpaceOnUse"><stop offset=".03" stop-color="#1470f0"/><stop offset=".52" stop-color="#0d5ece"/><stop offset="1" stop-color="#093f8b"/></linearGradient><linearGradient id="linear-gradient-2" x1="1844.42" y1="-343.25" x2="1567.37" y2="398.66" gradientTransform="translate(173.13 139.77) scale(.26)" gradientUnits="userSpaceOnUse"><stop offset="0" stop-color="#0e62d8"/><stop offset=".46" stop-color="#0a4aa3"/><stop offset="1" stop-color="#06295b"/></linearGradient></defs><g id="logo-logo"><path d="M500.88,339.53c-54.3-157.04-105.69-298.92-105.69-298.92,0,0,62.89,4.94,76.44,33.49s37.64,110.45,37.64,110.45c0,0-33.87,66.01-8.4,154.98ZM490.34,314.69c-72.48-132.25-136.98-246.14-136.98-246.14,0,0,23.45-3.53,45.69-.52l91.29,246.66ZM485.41,319.04c-89.29-115.04-168.24-213.67-168.24-213.67,0,0,22.62-8.45,44.94-10.2l123.3,223.87Z" fill="url(#linear-gradient)" fill-rule="evenodd"/><path d="M591.73,174.69c-36.16,31.51-67.58,68.72-81.59,114.45,4.7-22.16,15.45-46.59,35.01-76.76,31.72-48.91,86.98-86.93,116.82-111.06,23.5-19.01,33.8-41.65,37.12-50.41,5.9-3.37,10.19-6.61,12.66-10.48-5.4,85.48-73.95,94.12-120.02,134.26h0ZM583.11,156.41c-46.46,49.44-83.45,108.22-80.21,179.56,0,0-20.61-101.28,15.35-158.19C608.1,35.58,685.12,24.99,698.07,0c1.81,90.88-69.83,108.4-114.95,156.41ZM553.5,224.68c32.31-42.91,87.36-71,116.89-90.08,23.25-15.03,34.57-34.89,38.33-42.65,5.73-2.48,9.95-5,12.54-8.31-11.7,78.7-75.86,79.12-121.66,111.25-40.02,28.07-75.15,63.34-89.53,111.36,3.87-21.74,15.53-44.49,43.44-81.56h0Z" fill="url(#linear-gradient-2)" fill-rule="evenodd"/></g><g id="text-logo"><g id="text-logo-path-0"><path d="M329.98,459.87l22.48-57.92h-15.22l-14.87,38.31-14.87-38.31h-15.22l22.48,57.92h15.22ZM384.1,459.87h41.5v-12.1h-27.66v-10.8h22.48v-12.1h-22.48v-10.82h27.66v-12.1h-41.5v57.92ZM505.57,459.87l-13.06-20.92c6.92-2.86,11.76-9.68,11.76-17.81,0-10.47-8.13-18.75-18.5-19.19h-28.53v57.92h13.83v-19.46h5.53l12.18,19.46h16.79ZM471.07,428.3v-14.25h12.28c4.25,0,7.09,2.94,7.09,7.19s-2.84,7.07-7.09,7.07h-12.28ZM592.62,447.17l-12.35-7.19c-2.79,4.15-7.43,6.92-12.97,6.92-8.82,0-15.83-7.09-15.83-15.98s7.09-16,15.83-16c5.53,0,10.62,2.94,13.47,7.53l12.2-7.11c-5.44-8.72-14.97-14.33-25.67-14.33s-20.84,5.78-26.11,14.95c-2.69,4.59-3.98,9.61-3.98,14.97,0,10.72,5.71,20.38,14.95,25.84,4.59,2.69,9.68,4.05,15.14,4.05,10.45,0,19.79-5.34,25.32-13.64ZM672.92,459.87l-13.04-20.92c6.92-2.86,11.76-9.68,11.76-17.81,0-10.47-8.13-18.75-18.5-19.19h-28.53v57.92h13.83v-19.46h5.53l12.2,19.46h16.75ZM638.44,428.3v-14.25h12.28c4.23,0,7.09,2.94,7.09,7.19s-2.86,7.07-7.09,7.07h-12.28ZM704.56,459.87h41.5v-12.1h-27.66v-10.8h22.48v-12.1h-22.48v-10.82h27.66v-12.1h-41.5v57.92Z" fill="#fff"/></g></g><g id="tagline-baeb9e05-7452-4fc7-bdf9-7e7df68bed41-logo"><g id="tagline-baeb9e05-7452-4fc7-bdf9-7e7df68bed41-logo-path-0"><path d="M14.77,519.44l11.3-27.03h-3.48l-9.57,22.88-9.55-22.88H0l11.3,27.03h3.48ZM56,519.44h19.37v-2.82h-16.14v-9.28h13.72v-2.82h-13.72v-9.28h16.14v-2.82h-19.37v27.03ZM108.53,519.44v-11.26h7.78l7.07,11.26h3.78l-7.09-11.37c3.9-.65,6.8-3.84,6.8-7.84,0-4.4-3.67-7.82-8.26-7.82h-13.31v27.03h3.23ZM108.53,505.36v-10.12h9.89c3.27,0,5.44,1.98,5.44,5s-2.06,5.09-5.24,5.17l-10.09-.04ZM160.32,519.44v-27.03h-3.23v27.03h3.23ZM193.5,519.44v-12.1h13.72v-2.82h-13.72v-9.28h16.14v-2.82h-19.37v27.03h3.23ZM242.8,519.44v-27.03h-3.23v27.03h3.23ZM276.2,519.44l2.79-6.67h13.54l2.79,6.67h3.48l-11.3-27.03h-3.48l-11.3,27.03h3.48ZM280.14,509.95l5.61-13.39,5.61,13.39h-11.22ZM342.45,519.44c4.96,0,8.66-3.34,8.66-7.74,0-3.4-2.13-5.46-5.51-6.13,2.65-.98,4.3-3,4.3-5.94,0-4.03-3.13-7.07-7.86-7.22h-13.31v27.03h13.72ZM331.96,516.62v-10.05h10.68c3.27,0,5.46,2.02,5.46,5.13s-2.19,4.92-5.86,4.92h-10.28ZM331.96,504.15v-8.91h9.47c3.4,0,5.46,1.5,5.46,4.4,0,2.75-1.69,4.26-4.51,4.51h-10.41ZM381.06,519.44h19.35v-2.82h-16.14v-24.21h-3.21v27.03ZM430.36,519.44h19.37v-2.82h-16.14v-9.28h13.72v-2.82h-13.72v-9.28h16.14v-2.82h-19.37v27.03ZM539.48,513.51c-2.57,3.88-6.94,6.38-11.82,6.38-5.13,0-9.64-2.75-12.14-7.01-1.25-2.15-1.9-4.44-1.9-6.95,0-5,2.63-9.51,6.94-12.05,2.15-1.27,4.53-1.9,7.11-1.9,5,0,9.43,2.61,11.99,6.69l-2.75,1.58c-1.9-3.23-5.36-5.24-9.24-5.24s-7.42,2.11-9.36,5.46c-.98,1.65-1.46,3.52-1.46,5.48,0,4,2.09,7.51,5.4,9.45,1.67.96,3.44,1.46,5.42,1.46,3.71,0,7.05-1.9,9.03-4.94l2.79,1.61ZM572.81,519.44v-11.26h7.78l7.07,11.26h3.78l-7.11-11.37c3.92-.65,6.82-3.84,6.82-7.84,0-4.4-3.67-7.82-8.26-7.82h-13.31v27.03h3.23ZM572.81,505.36v-10.12h9.87c3.27,0,5.46,1.98,5.46,5s-2.06,5.09-5.24,5.17l-10.09-.04ZM621.38,519.44h19.37v-2.82h-16.14v-9.28h13.72v-2.82h-13.72v-9.28h16.14v-2.82h-19.37v27.03ZM681.26,519.44c4.96,0,9.32-2.61,11.74-6.78,1.21-2.06,1.81-4.32,1.81-6.74,0-4.82-2.54-9.22-6.69-11.7-2.06-1.21-4.36-1.81-6.86-1.81h-10.59v27.03h10.59ZM673.9,516.58v-21.34h7.36c3.71,0,7.09,2.06,8.95,5.32.92,1.65,1.36,3.44,1.36,5.36,0,5.94-4.55,10.66-10.32,10.66h-7.36ZM724.74,519.44h19.37v-2.82h-16.14v-9.28h13.72v-2.82h-13.72v-9.28h16.14v-2.82h-19.37v27.03ZM777.32,519.44v-22.44l15.89,22.44h3.48v-27.03h-3.23v22.48l-15.95-22.48h-3.46l.04.04v26.99h3.23ZM839.53,519.44v-24.21h9.68v-2.82h-22.59v2.82h9.68v24.21h3.23ZM882.37,519.44v-27.03h-3.23v27.03h3.23ZM915.78,519.44l2.79-6.67h13.54l2.79,6.67h3.48l-11.3-27.03h-3.48l-11.3,27.03h3.48ZM919.73,509.95l5.61-13.39,5.59,13.39h-11.2ZM968.3,519.44h19.37v-2.82h-16.14v-24.21h-3.23v27.03ZM1020.67,511.05l-3.07,1.13c1.9,5.13,5.57,7.67,11.07,7.67,5.84,0,9.95-3.34,9.95-7.88,0-3.23-1.98-5.07-4.48-5.99-1.25-.46-2.9-.94-4.96-1.42-3.52-.81-5.17-1.29-6.46-2.57-.69-.61-1.02-1.46-1.02-2.46,0-2.79,2.79-4.69,6.34-4.69s5.61,1.54,7.19,5.44l2.98-1.21c-1.88-4.71-5.15-7.05-10.16-7.05-5.32,0-9.57,3.15-9.57,7.51,0,3.42,2.15,5.44,4.73,6.4,1.29.54,3,1.02,5.13,1.54,3.27.81,4.88,1.21,6.13,2.34.61.56.92,1.29.92,2.17,0,3.04-2.57,5.05-6.72,5.05-4.4,0-6.59-2.06-7.99-5.97Z" fill="#87b6f7"/></g></g></svg>